<mxfile host="app.diagrams.net" modified="2023-11-29T09:34:20.242Z" agent="Mozilla/5.0 (Windows NT 10.0; Win64; x64) AppleWebKit/537.36 (KHTML, like Gecko) Chrome/119.0.0.0 Safari/537.36" etag="x6j2W3xK0YvRUlLvj_nl" version="22.1.4" type="device">
  <diagram name="Page-1" id="mzxHUdah_vPxczxo8Imh">
    <mxGraphModel dx="1434" dy="800" grid="1" gridSize="10" guides="1" tooltips="1" connect="1" arrows="1" fold="1" page="1" pageScale="1" pageWidth="850" pageHeight="1100" math="0" shadow="0">
      <root>
        <mxCell id="0" />
        <mxCell id="1" parent="0" />
        <mxCell id="0qu1iynRSlYeDVV2LzvR-1" value="" style="dashed=0;outlineConnect=0;html=1;align=center;labelPosition=center;verticalLabelPosition=bottom;verticalAlign=top;shape=mxgraph.weblogos.html5" vertex="1" parent="1">
          <mxGeometry x="233.5" y="520" width="52.4" height="70" as="geometry" />
        </mxCell>
        <mxCell id="0qu1iynRSlYeDVV2LzvR-2" value="" style="shape=image;html=1;verticalAlign=top;verticalLabelPosition=bottom;labelBackgroundColor=#ffffff;imageAspect=0;aspect=fixed;image=https://cdn1.iconfinder.com/data/icons/hawcons/32/700035-icon-77-document-file-css-128.png" vertex="1" parent="1">
          <mxGeometry x="330" y="397.5" width="69" height="69" as="geometry" />
        </mxCell>
        <mxCell id="0qu1iynRSlYeDVV2LzvR-4" value="" style="shape=image;html=1;verticalAlign=top;verticalLabelPosition=bottom;labelBackgroundColor=#ffffff;imageAspect=0;aspect=fixed;image=https://cdn0.iconfinder.com/data/icons/long-shadow-web-icons/512/python-128.png" vertex="1" parent="1">
          <mxGeometry x="219.7" y="680" width="80" height="80" as="geometry" />
        </mxCell>
        <mxCell id="0qu1iynRSlYeDVV2LzvR-6" value="" style="endArrow=classic;startArrow=classic;html=1;rounded=0;" edge="1" parent="1" source="0qu1iynRSlYeDVV2LzvR-1">
          <mxGeometry width="50" height="50" relative="1" as="geometry">
            <mxPoint x="300" y="520" as="sourcePoint" />
            <mxPoint x="350" y="470" as="targetPoint" />
          </mxGeometry>
        </mxCell>
        <mxCell id="0qu1iynRSlYeDVV2LzvR-7" value="" style="endArrow=classic;startArrow=classic;html=1;rounded=0;" edge="1" parent="1" source="0qu1iynRSlYeDVV2LzvR-1">
          <mxGeometry width="50" height="50" relative="1" as="geometry">
            <mxPoint x="160" y="520" as="sourcePoint" />
            <mxPoint x="191.90365853658545" y="474" as="targetPoint" />
          </mxGeometry>
        </mxCell>
        <mxCell id="0qu1iynRSlYeDVV2LzvR-8" value="" style="shape=flexArrow;endArrow=classic;startArrow=classic;html=1;rounded=0;" edge="1" parent="1" source="0qu1iynRSlYeDVV2LzvR-4" target="0qu1iynRSlYeDVV2LzvR-1">
          <mxGeometry width="100" height="100" relative="1" as="geometry">
            <mxPoint x="250" y="690" as="sourcePoint" />
            <mxPoint x="350" y="590" as="targetPoint" />
          </mxGeometry>
        </mxCell>
        <mxCell id="0qu1iynRSlYeDVV2LzvR-12" value="" style="verticalLabelPosition=bottom;html=1;verticalAlign=top;align=center;strokeColor=none;fillColor=#00BEF2;shape=mxgraph.azure.sql_database;" vertex="1" parent="1">
          <mxGeometry x="70" y="695" width="37.5" height="50" as="geometry" />
        </mxCell>
        <mxCell id="0qu1iynRSlYeDVV2LzvR-13" value="" style="endArrow=classic;startArrow=classic;html=1;rounded=0;exitX=1;exitY=0.5;exitDx=0;exitDy=0;exitPerimeter=0;entryX=0;entryY=0.5;entryDx=0;entryDy=0;" edge="1" parent="1" source="0qu1iynRSlYeDVV2LzvR-12" target="0qu1iynRSlYeDVV2LzvR-4">
          <mxGeometry width="50" height="50" relative="1" as="geometry">
            <mxPoint x="150" y="750" as="sourcePoint" />
            <mxPoint x="200" y="700" as="targetPoint" />
          </mxGeometry>
        </mxCell>
        <mxCell id="0qu1iynRSlYeDVV2LzvR-18" value="" style="outlineConnect=0;dashed=0;verticalLabelPosition=bottom;verticalAlign=top;align=center;html=1;shape=mxgraph.aws3.ec2;fillColor=#F58534;gradientColor=none;" vertex="1" parent="1">
          <mxGeometry x="460" y="673.5" width="76.5" height="93" as="geometry" />
        </mxCell>
        <mxCell id="0qu1iynRSlYeDVV2LzvR-19" value="" style="endArrow=classic;startArrow=classic;html=1;rounded=0;entryX=1;entryY=0.5;entryDx=0;entryDy=0;" edge="1" parent="1" source="0qu1iynRSlYeDVV2LzvR-18" target="0qu1iynRSlYeDVV2LzvR-4">
          <mxGeometry width="50" height="50" relative="1" as="geometry">
            <mxPoint x="210" y="810" as="sourcePoint" />
            <mxPoint x="260" y="760" as="targetPoint" />
          </mxGeometry>
        </mxCell>
        <mxCell id="0qu1iynRSlYeDVV2LzvR-21" value="" style="image;aspect=fixed;perimeter=ellipsePerimeter;html=1;align=center;shadow=0;dashed=0;spacingTop=3;image=img/lib/active_directory/web_server.svg;" vertex="1" parent="1">
          <mxGeometry x="720" y="680" width="80" height="100" as="geometry" />
        </mxCell>
        <mxCell id="0qu1iynRSlYeDVV2LzvR-22" value="" style="endArrow=classic;startArrow=classic;html=1;rounded=0;exitX=1;exitY=0.5;exitDx=0;exitDy=0;exitPerimeter=0;entryX=-0.037;entryY=0.4;entryDx=0;entryDy=0;entryPerimeter=0;" edge="1" parent="1" source="0qu1iynRSlYeDVV2LzvR-18" target="0qu1iynRSlYeDVV2LzvR-21">
          <mxGeometry width="50" height="50" relative="1" as="geometry">
            <mxPoint x="600" y="730" as="sourcePoint" />
            <mxPoint x="650" y="680" as="targetPoint" />
          </mxGeometry>
        </mxCell>
        <mxCell id="0qu1iynRSlYeDVV2LzvR-23" value="" style="image;aspect=fixed;perimeter=ellipsePerimeter;html=1;align=center;shadow=0;dashed=0;spacingTop=3;image=img/lib/active_directory/tunnel.svg;rotation=90;" vertex="1" parent="1">
          <mxGeometry x="690" y="840" width="100" height="20" as="geometry" />
        </mxCell>
        <mxCell id="0qu1iynRSlYeDVV2LzvR-24" value="" style="verticalLabelPosition=bottom;html=1;verticalAlign=top;align=center;strokeColor=none;fillColor=#00BEF2;shape=mxgraph.azure.laptop;pointerEvents=1;" vertex="1" parent="1">
          <mxGeometry x="690" y="920" width="105" height="80" as="geometry" />
        </mxCell>
        <mxCell id="0qu1iynRSlYeDVV2LzvR-25" value="" style="shape=flexArrow;endArrow=classic;startArrow=classic;html=1;rounded=0;" edge="1" parent="1">
          <mxGeometry width="100" height="100" relative="1" as="geometry">
            <mxPoint x="740" y="670" as="sourcePoint" />
            <mxPoint x="740" y="530" as="targetPoint" />
          </mxGeometry>
        </mxCell>
        <mxCell id="0qu1iynRSlYeDVV2LzvR-26" value="" style="verticalLabelPosition=bottom;html=1;verticalAlign=top;align=center;strokeColor=none;fillColor=#00BEF2;shape=mxgraph.azure.computer;pointerEvents=1;" vertex="1" parent="1">
          <mxGeometry x="705" y="450" width="70" height="60" as="geometry" />
        </mxCell>
        <mxCell id="0qu1iynRSlYeDVV2LzvR-27" value="Custom Server" style="strokeWidth=1;html=1;shadow=0;dashed=0;shape=mxgraph.ios.iScreenNameBar;fillColor2=#000000;fillColor3=#ffffff;buttonText=;fontColor=#ffffff;fontSize=10;whiteSpace=wrap;align=center;sketch=0;" vertex="1" parent="1">
          <mxGeometry x="448.25" y="780" width="100" height="25" as="geometry" />
        </mxCell>
        <mxCell id="0qu1iynRSlYeDVV2LzvR-28" value="Tunnel" style="strokeWidth=1;html=1;shadow=0;dashed=0;shape=mxgraph.ios.iScreenNameBar;fillColor2=#000000;fillColor3=#ffffff;buttonText=;fontColor=#ffffff;fontSize=10;whiteSpace=wrap;align=center;sketch=0;rotation=90;" vertex="1" parent="1">
          <mxGeometry x="727.25" y="835.75" width="94.5" height="25" as="geometry" />
        </mxCell>
        <mxCell id="0qu1iynRSlYeDVV2LzvR-29" value="" style="image;sketch=0;aspect=fixed;html=1;points=[];align=center;fontSize=12;image=img/lib/mscae/DNS.svg;" vertex="1" parent="1">
          <mxGeometry x="670" y="823" width="50" height="50" as="geometry" />
        </mxCell>
        <mxCell id="0qu1iynRSlYeDVV2LzvR-30" value="Organization restricted Device" style="strokeWidth=1;html=1;shadow=0;dashed=0;shape=mxgraph.ios.iScreenNameBar;fillColor2=#000000;fillColor3=#ffffff;buttonText=;fontColor=#ffffff;fontSize=10;whiteSpace=wrap;align=center;sketch=0;" vertex="1" parent="1">
          <mxGeometry x="660" y="1020" width="161.75" height="25" as="geometry" />
        </mxCell>
        <mxCell id="0qu1iynRSlYeDVV2LzvR-32" value="" style="shape=flexArrow;endArrow=classic;startArrow=classic;html=1;rounded=0;exitX=-0.025;exitY=-0.05;exitDx=0;exitDy=0;exitPerimeter=0;" edge="1" parent="1" source="0qu1iynRSlYeDVV2LzvR-21">
          <mxGeometry width="100" height="100" relative="1" as="geometry">
            <mxPoint x="610" y="670" as="sourcePoint" />
            <mxPoint x="660" y="550" as="targetPoint" />
          </mxGeometry>
        </mxCell>
        <mxCell id="0qu1iynRSlYeDVV2LzvR-35" value="" style="image;aspect=fixed;html=1;points=[];align=center;fontSize=12;image=img/lib/azure2/general/Mobile.svg;" vertex="1" parent="1">
          <mxGeometry x="630" y="460" width="40" height="67" as="geometry" />
        </mxCell>
        <mxCell id="0qu1iynRSlYeDVV2LzvR-36" value="Unrestricted Device" style="strokeWidth=1;html=1;shadow=0;dashed=0;shape=mxgraph.ios.iScreenNameBar;fillColor2=#000000;fillColor3=#ffffff;buttonText=;fontColor=#ffffff;fontSize=10;whiteSpace=wrap;align=center;sketch=0;" vertex="1" parent="1">
          <mxGeometry x="616" y="410" width="174" height="25" as="geometry" />
        </mxCell>
        <mxCell id="0qu1iynRSlYeDVV2LzvR-39" value="" style="shape=image;html=1;verticalAlign=top;verticalLabelPosition=bottom;labelBackgroundColor=#ffffff;imageAspect=0;aspect=fixed;image=https://cdn4.iconfinder.com/data/icons/file-extension-names-vol-8/512/27-128.png" vertex="1" parent="1">
          <mxGeometry x="140" y="402.3" width="69.7" height="69.7" as="geometry" />
        </mxCell>
        <mxCell id="0qu1iynRSlYeDVV2LzvR-43" value="" style="shape=image;html=1;verticalAlign=top;verticalLabelPosition=bottom;labelBackgroundColor=#ffffff;imageAspect=0;aspect=fixed;image=https://cdn1.iconfinder.com/data/icons/unicons-line-vol-5/24/react-128.png" vertex="1" parent="1">
          <mxGeometry x="40" y="1010" width="69" height="69" as="geometry" />
        </mxCell>
        <mxCell id="0qu1iynRSlYeDVV2LzvR-44" value="Maybe if time" style="strokeWidth=1;html=1;shadow=0;dashed=0;shape=mxgraph.ios.iScreenNameBar;fillColor2=#000000;fillColor3=#ffffff;buttonText=;fontColor=#ffffff;fontSize=10;whiteSpace=wrap;align=center;sketch=0;" vertex="1" parent="1">
          <mxGeometry x="14.5" y="995" width="120" height="15" as="geometry" />
        </mxCell>
      </root>
    </mxGraphModel>
  </diagram>
</mxfile>
